<svg width="42" height="40" viewBox="0 0 42 40" fill="none" xmlns="http://www.w3.org/2000/svg">
<path fill-rule="evenodd" clip-rule="evenodd" d="M34.875 0C38.81 0 42 3.35787 42 7.5V32.5C42 36.6421 38.81 40 34.875 40H11.125C7.18997 40 4 36.6421 4 32.5V7.5C4 3.35787 7.18997 0 11.125 0H34.875Z" fill="#0D6EFD" fill-opacity="0.2"/>
<path fill-rule="evenodd" clip-rule="evenodd" d="M30.875 0C34.81 0 38 3.35787 38 7.5V32.5C38 36.6421 34.81 40 30.875 40H7.125C3.18997 40 0 36.6421 0 32.5V7.5C0 3.35787 3.18997 0 7.125 0H30.875Z" fill="#0D6EFD"/>
<g opacity="0.600836">
<path fill-rule="evenodd" clip-rule="evenodd" d="M19 9C21.4867 9 23.5048 11.0269 23.5048 13.5217L24.4039 13.5238C25.4001 13.5238 26.2581 14.3331 26.32 15.328L26.9964 26.1959C27.0584 27.1923 26.3045 28 25.3112 28H12.6888C11.696 28 10.9416 27.1907 11.0036 26.1959L11.68 15.328C11.742 14.3316 12.5982 13.5238 13.5961 13.5238H14.4951C14.4951 11.0255 16.515 9 19 9ZM14.4954 15.3333H13.5963C13.55 15.3333 13.4813 15.398 13.4786 15.4408L12.8163 26.1904L25.1907 26.1881L24.5218 15.4408C24.5193 15.3997 24.4488 15.3333 24.4041 15.3333H23.5051V17.1428C23.5051 17.6425 23.1017 18.0476 22.6041 18.0476C22.1065 18.0476 21.7031 17.6425 21.7031 17.1428V15.3333H16.2973V17.1428C16.2973 17.6425 15.8939 18.0476 15.3963 18.0476C14.8987 18.0476 14.4954 17.6425 14.4954 17.1428V15.3333ZM18.9988 10.8102C17.5084 10.8102 16.2959 12.0261 16.2959 13.5223L21.7018 13.5245C21.7018 12.0269 20.4903 10.8102 18.9988 10.8102Z" fill="white"/>
</g>
</svg>
