<svg width="116" height="40" viewBox="0 0 116 40" fill="none" xmlns="http://www.w3.org/2000/svg">
<path fill-rule="evenodd" clip-rule="evenodd" d="M34.875 0C38.81 0 42 3.35787 42 7.5V32.5C42 36.6421 38.81 40 34.875 40H11.125C7.18997 40 4 36.6421 4 32.5V7.5C4 3.35787 7.18997 0 11.125 0H34.875Z" fill="#0D6EFD" fill-opacity="0.2"/>
<path fill-rule="evenodd" clip-rule="evenodd" d="M30.875 0C34.81 0 38 3.35787 38 7.5V32.5C38 36.6421 34.81 40 30.875 40H7.125C3.18997 40 0 36.6421 0 32.5V7.5C0 3.35787 3.18997 0 7.125 0H30.875Z" fill="#0D6EFD"/>
<g opacity="0.600836">
<path fill-rule="evenodd" clip-rule="evenodd" d="M19 9C21.4867 9 23.5048 11.0269 23.5048 13.5217L24.4039 13.5238C25.4001 13.5238 26.2581 14.3331 26.32 15.328L26.9964 26.1959C27.0584 27.1923 26.3045 28 25.3112 28H12.6888C11.696 28 10.9416 27.1907 11.0036 26.1959L11.68 15.328C11.742 14.3316 12.5982 13.5238 13.5961 13.5238H14.4951C14.4951 11.0255 16.515 9 19 9ZM14.4954 15.3333H13.5963C13.55 15.3333 13.4813 15.398 13.4786 15.4408L12.8163 26.1904L25.1907 26.1881L24.5218 15.4408C24.5193 15.3997 24.4488 15.3333 24.4041 15.3333H23.5051V17.1428C23.5051 17.6425 23.1017 18.0476 22.6041 18.0476C22.1065 18.0476 21.7031 17.6425 21.7031 17.1428V15.3333H16.2973V17.1428C16.2973 17.6425 15.8939 18.0476 15.3963 18.0476C14.8987 18.0476 14.4954 17.6425 14.4954 17.1428V15.3333ZM18.9988 10.8102C17.5084 10.8102 16.2959 12.0261 16.2959 13.5223L21.7018 13.5245C21.7018 12.0269 20.4903 10.8102 18.9988 10.8102Z" fill="white"/>
</g>
<path fill-rule="evenodd" clip-rule="evenodd" d="M56.8548 24.2648C60.7327 24.2648 62.7981 22.2416 62.7981 19.4934C62.7981 16.9391 60.9687 15.3964 59.0045 15.3036V15.135C60.8001 14.7304 62.1236 13.4574 62.1236 11.4258C62.1236 8.83776 60.2016 7 56.3912 7H49.4785V24.2648H56.8548ZM53.1287 16.6946H56.1889C57.9423 16.6946 59.0298 17.7062 59.0298 19.1309C59.0298 20.4291 58.1446 21.2806 56.1046 21.2806H53.1287V16.6946ZM53.1287 9.95053H55.9022C57.5208 9.95053 58.4397 10.7851 58.4397 12.0328C58.4397 13.3984 57.3269 14.2246 55.8348 14.2246H53.1287V9.95053ZM68.2588 24.2648V16.9391C68.2588 15.3458 69.4221 14.2499 71.007 14.2499C71.5043 14.2499 72.1872 14.3342 72.5244 14.4438V11.2572C72.204 11.1813 71.7572 11.1307 71.3947 11.1307C69.9448 11.1307 68.7561 11.9738 68.284 13.5755H68.1492V11.3162H64.6675V24.2648H68.2588ZM81.0494 22.4692H81.1506V24.2648H84.5563V15.5312C84.5563 12.4458 81.943 11.1476 79.0599 11.1476C75.9576 11.1476 73.9176 12.6313 73.4202 14.9917L76.7416 15.2615C76.9861 14.4016 77.7532 13.7694 79.043 13.7694C80.2654 13.7694 80.9651 14.3848 80.9651 15.4469V15.4975C80.9651 16.3321 80.0799 16.4417 77.8291 16.6609C75.2664 16.8969 72.965 17.7568 72.965 20.6483C72.965 23.2111 74.7943 24.5093 77.2643 24.5093C79.1779 24.5093 80.4171 23.6747 81.0494 22.4692ZM76.396 20.5303C76.396 19.5187 77.2306 19.0213 78.4951 18.8443C79.2791 18.7347 80.5605 18.5492 80.9904 18.2626V19.6367C80.9904 20.9939 79.8692 22.0308 78.2928 22.0308C77.1884 22.0308 76.396 21.5166 76.396 20.5303ZM92.9486 14.1319C94.3901 14.1319 95.2584 15.076 95.25 16.6609V24.2648H98.8412V16.0202C98.8412 13.0022 97.0709 11.1476 94.3733 11.1476C92.4512 11.1476 91.0602 12.0918 90.4786 13.6008H90.3268V11.3162H86.9042V24.2648H90.4954V16.7789C90.5039 15.1097 91.4986 14.1319 92.9486 14.1319ZM109.68 22.191H109.832V24.2648H113.373V7H109.79V13.4912H109.68C109.2 12.4374 108.163 11.1476 105.996 11.1476C103.155 11.1476 100.753 13.3563 100.753 17.8074C100.753 22.1404 103.054 24.4756 106.005 24.4756C108.095 24.4756 109.183 23.2701 109.68 22.191ZM104.42 17.7905C104.42 15.5481 105.364 14.0054 107.143 14.0054C108.888 14.0054 109.866 15.4807 109.866 17.7905C109.866 20.1004 108.871 21.6178 107.143 21.6178C105.381 21.6178 104.42 20.0498 104.42 17.7905Z" fill="#0D6EFD"/>
<path d="M101.852 35.1101C101.314 35.1101 100.851 34.9953 100.463 34.7657C100.077 34.5337 99.7789 34.2082 99.5682 33.7891C99.3598 33.3677 99.2557 32.8741 99.2557 32.3083C99.2557 31.7496 99.3598 31.2572 99.5682 30.831C99.7789 30.4049 100.072 30.0723 100.449 29.8332C100.828 29.594 101.27 29.4745 101.777 29.4745C102.085 29.4745 102.383 29.5254 102.672 29.6272C102.961 29.729 103.22 29.8888 103.45 30.1066C103.679 30.3244 103.86 30.6073 103.993 30.9553C104.125 31.301 104.192 31.7212 104.192 32.216V32.5924H99.8558V31.7969H103.151C103.151 31.5176 103.094 31.2702 102.981 31.0547C102.867 30.8369 102.707 30.6653 102.501 30.5398C102.298 30.4144 102.059 30.3516 101.784 30.3516C101.486 30.3516 101.225 30.425 101.003 30.5718C100.783 30.7162 100.612 30.9056 100.491 31.14C100.373 31.372 100.314 31.6241 100.314 31.8964V32.5178C100.314 32.8824 100.378 33.1925 100.506 33.4482C100.636 33.7039 100.817 33.8992 101.049 34.0341C101.281 34.1667 101.552 34.233 101.862 34.233C102.063 34.233 102.247 34.2046 102.413 34.1478C102.578 34.0886 102.722 34.001 102.842 33.885C102.963 33.769 103.055 33.6258 103.119 33.4553L104.124 33.6364C104.044 33.9323 103.899 34.1916 103.691 34.4141C103.485 34.6343 103.226 34.8059 102.913 34.929C102.603 35.0498 102.249 35.1101 101.852 35.1101Z" fill="#ACACAC"/>
<path d="M96.1245 35.1101C95.5965 35.1101 95.142 34.9906 94.7608 34.7515C94.382 34.51 94.0908 34.1774 93.8872 33.7536C93.6836 33.3298 93.5818 32.8445 93.5818 32.2976C93.5818 31.7437 93.686 31.2548 93.8943 30.831C94.1027 30.4049 94.3962 30.0723 94.775 29.8332C95.1538 29.594 95.6001 29.4745 96.1138 29.4745C96.5281 29.4745 96.8974 29.5514 97.2218 29.7053C97.5461 29.8568 97.8077 30.0699 98.0066 30.3445C98.2078 30.6191 98.3274 30.9399 98.3652 31.3069H97.3318C97.275 31.0512 97.1448 30.831 96.9412 30.6464C96.74 30.4617 96.4701 30.3694 96.1316 30.3694C95.8356 30.3694 95.5764 30.4475 95.3539 30.6037C95.1337 30.7576 94.9621 30.9778 94.839 31.2643C94.7158 31.5484 94.6543 31.8845 94.6543 32.2728C94.6543 32.6705 94.7147 33.0138 94.8354 33.3026C94.9561 33.5914 95.1266 33.8152 95.3468 33.9738C95.5693 34.1324 95.8309 34.2117 96.1316 34.2117C96.3328 34.2117 96.5151 34.175 96.6784 34.1016C96.8442 34.0259 96.9827 33.9181 97.0939 33.7785C97.2076 33.6388 97.2869 33.4707 97.3318 33.2742H98.3652C98.3274 33.6269 98.2125 33.9418 98.0208 34.2188C97.829 34.4958 97.5721 34.7136 97.2502 34.8722C96.9306 35.0308 96.5553 35.1101 96.1245 35.1101Z" fill="#ACACAC"/>
<path d="M90.1843 35V29.5454H91.2106V30.4119H91.2674C91.3668 30.1183 91.542 29.8875 91.793 29.7194C92.0463 29.549 92.3327 29.4637 92.6523 29.4637C92.7186 29.4637 92.7967 29.4661 92.8867 29.4708C92.979 29.4756 93.0512 29.4815 93.1033 29.4886V30.5042C93.0607 30.4924 92.985 30.4794 92.8761 30.4652C92.7672 30.4486 92.6583 30.4403 92.5494 30.4403C92.2984 30.4403 92.0747 30.4936 91.8782 30.6001C91.6841 30.7043 91.5302 30.8499 91.4165 31.0369C91.3029 31.2216 91.2461 31.4323 91.2461 31.669V35H90.1843Z" fill="#ACACAC"/>
<path d="M86.666 35.1101C86.1286 35.1101 85.6658 34.9953 85.2775 34.7657C84.8916 34.5337 84.5933 34.2082 84.3826 33.7891C84.1743 33.3677 84.0701 32.8741 84.0701 32.3083C84.0701 31.7496 84.1743 31.2572 84.3826 30.831C84.5933 30.4049 84.8869 30.0723 85.2633 29.8332C85.6421 29.594 86.0848 29.4745 86.5914 29.4745C86.8992 29.4745 87.1975 29.5254 87.4863 29.6272C87.7751 29.729 88.0344 29.8888 88.264 30.1066C88.4937 30.3244 88.6748 30.6073 88.8073 30.9553C88.9399 31.301 89.0062 31.7212 89.0062 32.216V32.5924H84.6703V31.7969H87.9657C87.9657 31.5176 87.9089 31.2702 87.7953 31.0547C87.6816 30.8369 87.5218 30.6653 87.3159 30.5398C87.1123 30.4144 86.8732 30.3516 86.5985 30.3516C86.3002 30.3516 86.0398 30.425 85.8173 30.5718C85.5971 30.7162 85.4267 30.9056 85.3059 31.14C85.1876 31.372 85.1284 31.6241 85.1284 31.8964V32.5178C85.1284 32.8824 85.1923 33.1925 85.3201 33.4482C85.4503 33.7039 85.6314 33.8992 85.8635 34.0341C86.0955 34.1667 86.3665 34.233 86.6767 34.233C86.8779 34.233 87.0614 34.2046 87.2271 34.1478C87.3928 34.0886 87.536 34.001 87.6568 33.885C87.7775 33.769 87.8698 33.6258 87.9338 33.4553L88.9387 33.6364C88.8582 33.9323 88.7138 34.1916 88.5055 34.4141C88.2995 34.6343 88.0403 34.8059 87.7278 34.929C87.4177 35.0498 87.0637 35.1101 86.666 35.1101Z" fill="#ACACAC"/>
<path d="M75.4773 35.0001V29.5455H76.4965V30.4333H76.5639C76.6776 30.1326 76.8634 29.8983 77.1215 29.7302C77.3795 29.5597 77.6885 29.4745 78.0483 29.4745C78.4129 29.4745 78.7183 29.5597 78.9645 29.7302C79.2131 29.9006 79.3966 30.135 79.5149 30.4333H79.5718C79.702 30.1421 79.9091 29.9101 80.1932 29.7373C80.4773 29.5621 80.8158 29.4745 81.2088 29.4745C81.7036 29.4745 82.1073 29.6296 82.4198 29.9397C82.7346 30.2498 82.8921 30.7174 82.8921 31.3424V35.0001H81.8303V31.4418C81.8303 31.0725 81.7297 30.805 81.5284 30.6393C81.3272 30.4735 81.0869 30.3907 80.8076 30.3907C80.4619 30.3907 80.1932 30.4972 80.0014 30.7103C79.8097 30.921 79.7138 31.1921 79.7138 31.5235V35.0001H78.6556V31.3743C78.6556 31.0784 78.5632 30.8405 78.3786 30.6606C78.1939 30.4806 77.9536 30.3907 77.6577 30.3907C77.4565 30.3907 77.2706 30.4439 77.1002 30.5505C76.9321 30.6546 76.796 30.8002 76.6918 30.9873C76.59 31.1743 76.5391 31.3909 76.5391 31.6371V35.0001H75.4773Z" fill="#ACACAC"/>
<path d="M66.6394 35.0001V29.5455H67.6586V30.4333H67.7261C67.8397 30.1326 68.0255 29.8983 68.2836 29.7302C68.5416 29.5597 68.8506 29.4745 69.2104 29.4745C69.575 29.4745 69.8804 29.5597 70.1266 29.7302C70.3752 29.9006 70.5587 30.135 70.677 30.4333H70.7339C70.8641 30.1421 71.0712 29.9101 71.3553 29.7373C71.6394 29.5621 71.9779 29.4745 72.3709 29.4745C72.8657 29.4745 73.2694 29.6296 73.5819 29.9397C73.8967 30.2498 74.0542 30.7174 74.0542 31.3424V35.0001H72.9924V31.4418C72.9924 31.0725 72.8918 30.805 72.6905 30.6393C72.4893 30.4735 72.249 30.3907 71.9697 30.3907C71.624 30.3907 71.3553 30.4972 71.1636 30.7103C70.9718 30.921 70.8759 31.1921 70.8759 31.5235V35.0001H69.8177V31.3743C69.8177 31.0784 69.7253 30.8405 69.5407 30.6606C69.356 30.4806 69.1157 30.3907 68.8198 30.3907C68.6186 30.3907 68.4327 30.4439 68.2623 30.5505C68.0942 30.6546 67.9581 30.8002 67.8539 30.9873C67.7521 31.1743 67.7012 31.3909 67.7012 31.6371V35.0001H66.6394Z" fill="#ACACAC"/>
<path d="M62.9116 35.1101C62.4002 35.1101 61.9539 34.993 61.5728 34.7586C61.1916 34.5242 60.8957 34.1963 60.685 33.7749C60.4743 33.3535 60.369 32.8611 60.369 32.2976C60.369 31.7318 60.4743 31.237 60.685 30.8133C60.8957 30.3895 61.1916 30.0604 61.5728 29.826C61.9539 29.5917 62.4002 29.4745 62.9116 29.4745C63.4229 29.4745 63.8692 29.5917 64.2503 29.826C64.6315 30.0604 64.9274 30.3895 65.1381 30.8133C65.3488 31.237 65.4542 31.7318 65.4542 32.2976C65.4542 32.8611 65.3488 33.3535 65.1381 33.7749C64.9274 34.1963 64.6315 34.5242 64.2503 34.7586C63.8692 34.993 63.4229 35.1101 62.9116 35.1101ZM62.9151 34.2188C63.2466 34.2188 63.5212 34.1312 63.739 33.956C63.9568 33.7808 64.1178 33.5476 64.2219 33.2564C64.3285 32.9653 64.3817 32.6445 64.3817 32.2941C64.3817 31.9461 64.3285 31.6265 64.2219 31.3353C64.1178 31.0417 63.9568 30.8062 63.739 30.6286C63.5212 30.451 63.2466 30.3623 62.9151 30.3623C62.5813 30.3623 62.3043 30.451 62.0842 30.6286C61.8664 30.8062 61.7042 31.0417 61.5977 31.3353C61.4935 31.6265 61.4414 31.9461 61.4414 32.2941C61.4414 32.6445 61.4935 32.9653 61.5977 33.2564C61.7042 33.5476 61.8664 33.7808 62.0842 33.956C62.3043 34.1312 62.5813 34.2188 62.9151 34.2188Z" fill="#ACACAC"/>
<path d="M57.2377 35.1101C56.7098 35.1101 56.2553 34.9906 55.8741 34.7515C55.4953 34.51 55.2041 34.1774 55.0005 33.7536C54.7969 33.3298 54.6951 32.8445 54.6951 32.2976C54.6951 31.7437 54.7993 31.2548 55.0076 30.831C55.216 30.4049 55.5095 30.0723 55.8883 29.8332C56.2671 29.594 56.7134 29.4745 57.2271 29.4745C57.6414 29.4745 58.0107 29.5514 58.335 29.7053C58.6594 29.8568 58.921 30.0699 59.1198 30.3445C59.3211 30.6191 59.4406 30.9399 59.4785 31.3069H58.4451C58.3883 31.0512 58.2581 30.831 58.0545 30.6464C57.8533 30.4617 57.5834 30.3694 57.2448 30.3694C56.9489 30.3694 56.6897 30.4475 56.4671 30.6037C56.247 30.7576 56.0753 30.9778 55.9522 31.2643C55.8291 31.5484 55.7676 31.8845 55.7676 32.2728C55.7676 32.6705 55.8279 33.0138 55.9487 33.3026C56.0694 33.5914 56.2399 33.8152 56.46 33.9738C56.6826 34.1324 56.9442 34.2117 57.2448 34.2117C57.4461 34.2117 57.6284 34.175 57.7917 34.1016C57.9574 34.0259 58.0959 33.9181 58.2072 33.7785C58.3208 33.6388 58.4001 33.4707 58.4451 33.2742H59.4785C59.4406 33.6269 59.3258 33.9418 59.1341 34.2188C58.9423 34.4958 58.6854 34.7136 58.3635 34.8722C58.0439 35.0308 57.6686 35.1101 57.2377 35.1101Z" fill="#ACACAC"/>
<path d="M49 35V27.7273H53.5597V28.6719H50.0973V30.8878H53.3217V31.8289H50.0973V34.0554H53.6023V35H49Z" fill="#ACACAC"/>
</svg>
